<svg xmlns="http://www.w3.org/2000/svg">
	<symbol id="icon-cross" viewBox="0 0 20 20" fill="none">
	  <path fill-rule="evenodd" clip-rule="evenodd" d="M9.76579 9.14951L17.8748 1.04052L18.4716 1.63732L10.3626 9.74632L18.75 18.1337L18.1337 18.75L9.74632 10.3626L1.63732 18.4716L1.04052 17.8748L9.14951 9.76579L0.75 1.36628L1.36628 0.75L9.76579 9.14951Z" stroke="currentColor" stroke-opacity="0.4" stroke-linejoin="round"/>
	</symbol>

  <symbol id="icon-signal" viewBox="0 0 20 12" fill="none">
    <path fill-rule="evenodd" clip-rule="evenodd" d="M19.2 1.125C19.2 0.50368 18.7224 0 18.1333 0H17.0667C16.4776 0 16 0.50368 16 1.125V10.875C16 11.4963 16.4776 12 17.0667 12H18.1333C18.7224 12 19.2 11.4963 19.2 10.875V1.125ZM11.7667 2.4H12.8333C13.4224 2.4 13.9 2.91577 13.9 3.552V10.848C13.9 11.4842 13.4224 12 12.8333 12H11.7667C11.1776 12 10.7 11.4842 10.7 10.848V3.552C10.7 2.91577 11.1776 2.4 11.7667 2.4ZM7.43333 5H6.36667C5.77756 5 5.3 5.52233 5.3 6.16667V10.8333C5.3 11.4777 5.77756 12 6.36667 12H7.43333C8.02244 12 8.5 11.4777 8.5 10.8333V6.16667C8.5 5.52233 8.02244 5 7.43333 5ZM2.13333 7.4H1.06667C0.477563 7.4 0 7.91487 0 8.55V10.85C0 11.4851 0.477563 12 1.06667 12H2.13333C2.72244 12 3.2 11.4851 3.2 10.85V8.55C3.2 7.91487 2.72244 7.4 2.13333 7.4Z" fill="currentColor"/>
  </symbol>

  <symbol id="icon-signal-se" viewBox="0 0 17 10" fill="none">
    <path fill-rule="evenodd" clip-rule="evenodd" d="M14.5 0C13.9477 0 13.5 0.447715 13.5 1V9C13.5 9.55229 13.9477 10 14.5 10H15.5C16.0523 10 16.5 9.55228 16.5 9V1C16.5 0.447715 16.0523 0 15.5 0H14.5ZM9 3C9 2.44772 9.44772 2 10 2H11C11.5523 2 12 2.44772 12 3V9C12 9.55229 11.5523 10 11 10H10C9.44771 10 9 9.55229 9 9V3ZM5.5 4C4.94772 4 4.5 4.44772 4.5 5V9C4.5 9.55228 4.94772 10 5.5 10H6.5C7.05228 10 7.5 9.55228 7.5 9V5C7.5 4.44772 7.05228 4 6.5 4H5.5ZM1 5.5C0.447715 5.5 0 5.94772 0 6.5V9C0 9.55229 0.447715 10 1 10H2C2.55228 10 3 9.55229 3 9V6.5C3 5.94772 2.55228 5.5 2 5.5H1Z" fill="currentColor"/>
  </symbol>

  <symbol id="icon-wifi" viewBox="0 0 17 12" fill="none">
    <path fill-rule="evenodd" clip-rule="evenodd" d="M8.50047 2.4006C10.967 2.40071 13.3393 3.29823 15.1269 4.90768C15.2615 5.03194 15.4766 5.03037 15.6092 4.90417L16.896 3.67435C16.9631 3.61034 17.0006 3.52363 17 3.43342C16.9994 3.34321 16.9609 3.25692 16.893 3.19366C12.2011 -1.06455 4.79908 -1.06455 0.107163 3.19366C0.0391973 3.25688 0.000634479 3.34314 7.75932e-06 3.43335C-0.00061896 3.52356 0.0367421 3.61029 0.103824 3.67435L1.39096 4.90417C1.52346 5.03056 1.73878 5.03213 1.87331 4.90768C3.66116 3.29813 6.03367 2.4006 8.50047 2.4006ZM8.49869 6.50849C9.8448 6.50841 11.1429 7.00652 12.1407 7.90604C12.2756 8.0337 12.4882 8.03094 12.6198 7.8998L13.8964 6.61563C13.9636 6.54827 14.001 6.45689 14 6.36194C13.999 6.26699 13.9599 6.17638 13.8913 6.1104C10.8527 3.29653 6.14722 3.29653 3.10871 6.1104C3.04008 6.17638 3.00092 6.26703 3.00002 6.36201C2.99912 6.457 3.03655 6.54837 3.10392 6.61563L4.38019 7.8998C4.51175 8.03094 4.72435 8.0337 4.8593 7.90604C5.85645 7.00712 7.15348 6.50905 8.49869 6.50849ZM10.9999 9.22765C11.0018 9.33019 10.9651 9.42906 10.8983 9.5009L8.73967 11.8903C8.67639 11.9605 8.59011 12 8.50009 12C8.41008 12 8.3238 11.9605 8.26052 11.8903L6.10149 9.5009C6.03479 9.42901 5.9981 9.33011 6.00008 9.22756C6.00205 9.12502 6.04252 9.02791 6.11193 8.95918C7.49054 7.68027 9.50964 7.68027 10.8883 8.95918C10.9576 9.02797 10.998 9.12511 10.9999 9.22765Z" fill="currentColor"/>
  </symbol>

  <symbol id="icon-wifi-se" viewBox="0 0 15 10" fill="none">
    <path fill-rule="evenodd" clip-rule="evenodd" d="M0 2.82956C1.87675 1.07441 4.39812 0 7.17044 0C9.94275 0 12.4641 1.07441 14.3409 2.82956L12.9257 4.24476C11.4117 2.85108 9.39046 2 7.17044 2C4.95042 2 2.92918 2.85108 1.4152 4.24476L0 2.82956H0ZM2.47697 5.30653C3.71856 4.18377 5.36465 3.5 7.17044 3.5C8.97623 3.5 10.6223 4.18377 11.8639 5.30653L10.4472 6.72326C9.56964 5.96124 8.4239 5.5 7.17044 5.5C5.91697 5.5 4.77124 5.96124 3.8937 6.72326L2.47697 5.30653ZM4.95815 7.78771C5.56109 7.29532 6.33128 7 7.17044 7C8.0096 7 8.77978 7.29532 9.38273 7.78771L7.17044 10L4.95815 7.78771Z" fill="currentColor"/>
  </symbol>

  <symbol id="icon-battery" viewBox="0 0 28 13" fill="none">
    <rect opacity="0.35" x="0.5" y="0.5" width="24" height="12" rx="3" stroke="currentColor"/>
    <path opacity="0.4" d="M26 4.66667V8.66667C26.8047 8.32789 27.328 7.5398 27.328 6.66667C27.328 5.79353 26.8047 5.00544 26 4.66667Z" fill="currentColor"/>
    <rect x="2" y="2" width="21" height="9" rx="1.33333" fill="currentColor"/>
  </symbol>

  <symbol id="icon-battery-se" viewBox="0 0 27 12" fill="none">
    <path opacity="0.4" d="M4 0.5H20C20.7083 0.5 21.2098 0.500215 21.6016 0.532227C21.9874 0.563766 22.2231 0.623454 22.4082 0.717773C22.7845 0.909508 23.0905 1.21554 23.2822 1.5918C23.3765 1.77691 23.4362 2.01264 23.4678 2.39844C23.4998 2.79023 23.5 3.29168 23.5 4V7.64746C23.5 8.28532 23.4997 8.73683 23.4736 9.09082C23.4479 9.43971 23.399 9.65444 23.3223 9.82422C23.1219 10.267 22.767 10.6219 22.3242 10.8223C22.1544 10.899 21.9397 10.9479 21.5908 10.9736C21.2368 10.9997 20.7853 11 20.1475 11H4C3.29168 11 2.79023 10.9998 2.39844 10.9678C2.01264 10.9362 1.77691 10.8765 1.5918 10.7822C1.21554 10.5905 0.909508 10.2845 0.717773 9.9082C0.623454 9.72309 0.563766 9.48736 0.532227 9.10156C0.500215 8.70977 0.5 8.20832 0.5 7.5V4C0.5 3.29168 0.500215 2.79023 0.532227 2.39844C0.563766 2.01264 0.623454 1.77691 0.717773 1.5918C0.909508 1.21554 1.21554 0.909508 1.5918 0.717773C1.77691 0.623454 2.01264 0.563766 2.39844 0.532227C2.79023 0.500215 3.29168 0.5 4 0.5Z" stroke="currentColor"/>
    <path opacity="0.4" fill-rule="evenodd" clip-rule="evenodd" d="M25 7.87398C25.8626 7.65196 26.5 6.86891 26.5 5.93699C26.5 5.00507 25.8626 4.22202 25 4V7.87398Z" fill="currentColor"/>
    <rect x="2" y="2" width="20" height="7.5" rx="0.5" fill="currentColor"/>
  </symbol>

  <symbol id="icon-bluetooth" viewBox="0 0 7 13" fill="none" >
    <path d="M0 3.0675L6 8.5675L3 11.0675V1.0675L6 3.5675L0 9.0675" stroke="currentColor"/>
  </symbol>
</svg>
